<?xml version="1.0" encoding="utf-8" ?><svg xmlns="http://www.w3.org/2000/svg" xmlns:xlink="http://www.w3.org/1999/xlink" width="1024" height="418" viewBox="0 0 1024 418"><defs><linearGradient id="gradient_0" gradientUnits="userSpaceOnUse" x1="264.97812" y1="311.98166" x2="326.18314" y2="245.3831"><stop offset="0" stop-color="#38426F"/><stop offset="1" stop-color="#746FA8"/></linearGradient></defs><path fill="url(#gradient_0)" d="M304.05 202.889C308.035 196.805 314.284 191.273 319.099 185.854C326.548 177.47 335.455 168.413 342.484 159.804C342.833 188.307 342.73 217.745 342.631 246.252L342.577 271.704C342.577 275.094 342.779 282.085 342.47 285.278C342.644 288.965 342.794 292.653 342.92 296.342C338.629 296.037 329.109 296.405 324.265 296.411C308.769 296.37 293.273 296.53 277.781 296.891C266.597 297.072 255.216 296.001 244.173 296.412C247.75 291.92 249.671 289.635 254.349 286.358C254.602 281.853 254.65 276.872 254.784 272.327C255.109 271.915 255.044 271.642 255.134 271.04C254.153 268.839 250.527 266.639 248.398 265.05C246.615 266.947 245.575 268.465 243.189 268.89C244.022 267.835 245.317 266.553 246.287 265.56C260.743 250.759 274.004 234.632 288.399 219.807L292.978 214.756L293.025 223.122L293.136 286.598C303.558 286.608 315.81 286.934 326.102 286.608C321.673 281.822 307.742 268.578 304.994 264.49C302.872 261.831 304.474 221.686 303.963 214.657C303.813 212.588 303.942 205.088 304.05 202.889ZM313.418 251.477L313.499 259.289C317.247 263.871 328.143 275.037 332.643 279.153C333.288 277.886 333.264 277.312 333.396 275.907C332.072 272.456 333.089 196.463 332.747 184.84C326.919 191.903 319.134 199.137 313.833 206.08C313.046 219.967 313.499 237.24 313.418 251.477ZM264.994 260.297C264.706 263.548 263.913 284.839 265.081 286.509L283.074 286.502C283.059 282.908 283.393 240.901 282.995 240.11C277.484 245.842 269.663 253.903 264.994 260.297Z"/><defs><linearGradient id="gradient_1" gradientUnits="userSpaceOnUse" x1="313.54819" y1="244.73767" x2="362.0925" y2="176.50668"><stop offset="0" stop-color="#6F6D9F"/><stop offset="1" stop-color="#929FB5"/></linearGradient></defs><path fill="url(#gradient_1)" d="M304.05 202.889C308.035 196.805 314.284 191.273 319.099 185.854C326.548 177.47 335.455 168.413 342.484 159.804C342.833 188.307 342.73 217.745 342.631 246.252L342.577 271.704C342.577 275.094 342.779 282.085 342.47 285.278C340.079 283.532 343.605 261.855 340.957 259.31C336.288 260.997 337.393 259.377 334.245 259.944C334.085 262.643 333.99 274.322 333.396 275.907C332.072 272.456 333.089 196.463 332.747 184.84C326.919 191.903 319.134 199.137 313.833 206.08C313.046 219.967 313.499 237.24 313.418 251.477C311.112 247.731 313.577 241.69 310.777 237.521L310.046 237.508L308.943 238.905C306.307 238.773 307.59 236.834 305.67 237.914C303.958 242.094 305.474 255.539 304.927 260.647C304.767 262.143 306.163 263.554 304.994 264.49C302.872 261.831 304.474 221.686 303.963 214.657C303.813 212.588 303.942 205.088 304.05 202.889Z"/><path fill="#6F739E" d="M292.978 214.756L293.025 223.122C291.358 223.037 289.275 221.208 288.399 219.807L292.978 214.756Z"/><defs><linearGradient id="gradient_2" gradientUnits="userSpaceOnUse" x1="158.78172" y1="318.37207" x2="235.20587" y2="243.83788"><stop offset="0" stop-color="#012E48"/><stop offset="1" stop-color="#45507D"/></linearGradient></defs><path fill="url(#gradient_2)" d="M196.829 230.525C195.678 236.213 197.772 236.392 202.843 238.232C187.93 254.251 170.55 270.984 156.223 286.927L190.416 286.898C190.241 280.985 189.958 274.765 190.194 268.882C192.318 264.895 220.115 235.071 224.477 231.722C231.345 238.09 239.737 247.036 246.213 253.97C243.998 256.179 241.731 258.51 239.484 260.668C236.023 257.143 232.072 253.281 228.762 249.677L229.183 284.137C230.861 282.18 241.639 269.785 243.189 268.89C245.575 268.465 246.615 266.947 248.398 265.05C250.527 266.639 254.153 268.839 255.134 271.04C255.044 271.642 255.109 271.915 254.784 272.327L254.461 271.492C254.269 271.515 254.077 271.538 253.884 271.561C242.629 285.927 229.107 298.367 216.632 311.681C208.461 320.403 199.589 330.661 190.354 338.126C190.507 324.117 190.527 310.107 190.411 296.098C172.605 296.527 152.187 296.19 134.304 295.967C135.074 294.946 135.876 294.077 136.76 293.158C156.795 272.318 176.589 251.165 196.829 230.525ZM200.562 271.437C200.274 281.824 199.318 304.692 200.306 314.534C205.599 309.009 214.623 300.009 218.924 294.072C218.967 287.854 220.278 254.824 219.209 251.387C214.055 256.766 204.852 265.833 200.562 271.437Z"/><path fill="#FDFDFD" d="M780.461 182.077C789.153 181.449 787.358 183.877 794.374 186.068C796.124 185.582 794.336 184.55 796.272 182.468C798.961 181.917 805.047 182.301 808.042 182.394C807.848 198.361 810.459 217.651 806.759 233.377C805.04 240.685 797.101 246.045 789.774 246.457C777.92 247.123 769.972 244.383 764.684 233.426C764.57 231.61 764.379 232.153 765.125 230.588C767.587 228.569 772.911 229.398 776.257 229.573C787.805 240.629 794.579 234.3 795.298 220.218C768.578 245.789 745.17 189.259 780.461 182.077ZM788.244 214.225C791.42 212.477 793.457 210.933 794.606 207.169C795.469 204.39 795.168 201.381 793.772 198.828C791.266 194.347 787.688 193.821 783.083 193.987C772.246 201.272 775.336 215.492 788.244 214.225Z"/><path fill="#FDFDFD" d="M621.157 170.742C630.332 170.607 643.807 168.911 650.2 176.961C652.33 179.602 653.279 183.004 652.824 186.366C652.135 191.456 649.224 194.433 645.425 197.349C655.801 203.851 657.993 215.38 647.645 223.113C639.455 227.548 619.752 226.061 609.939 225.978L609.976 170.933L621.157 170.742ZM623.807 214.832C627.504 214.69 635.622 214.591 638.842 213.402C645.173 201.792 631.438 202.932 623.851 202.776C623.869 206.795 623.854 210.813 623.807 214.832ZM623.799 192.45C628.069 192.467 634.224 192.949 637.874 191.046C642.345 180.616 630.895 181.993 623.881 181.88C623.855 185.39 623.862 188.947 623.799 192.45Z"/><path fill="#FDFDFD" d="M742.618 168.142C746.778 167.987 751.763 168.089 755.986 168.08L756.026 226.002C753.506 225.963 744.412 226.577 742.899 225.544C742.685 224.077 742.6 223.088 742.53 221.606C738.862 221.703 737.953 227.8 724.651 225.837C695.003 214.184 717.647 164.861 742.52 186.949L742.618 168.142ZM735.848 214.368C739.163 212.513 741.302 210.92 742.418 206.948C743.211 204.208 742.85 201.263 741.419 198.794C739.048 194.76 735.82 193.922 731.492 193.538C725.708 196.656 721.959 202.882 725.434 209.194C726.738 211.525 728.92 213.237 731.494 213.95C732.788 214.316 734.49 214.354 735.848 214.368Z"/><path fill="#6F739E" d="M327.959 146.078C329.645 148.094 332.284 150.883 333.039 153.27C310.021 179.204 286.694 204.862 263.062 230.238C259.177 234.382 255.167 239.411 251.365 243.336C242.861 234.151 232.412 223.902 224.358 214.659C218.778 222.32 209.32 230.961 202.843 238.232C197.772 236.392 195.678 236.213 196.829 230.525C206.168 221.291 214.91 211.226 224.46 201.73C231.58 208.329 245.199 222.316 251.311 229.646C263.948 213.701 280.703 196.371 294.618 181.029L309.036 165.108C311.49 162.371 315.506 157.603 318.026 155.401L319.491 155.264C322.076 153.579 325.859 148.651 327.959 146.078Z"/><path fill="#FDFDFD" d="M508.331 182.257C520.471 180.824 531.486 189.473 532.975 201.606C534.464 213.739 525.867 224.794 513.74 226.339C501.534 227.895 490.39 219.229 488.891 207.015C487.393 194.802 496.111 183.698 508.331 182.257ZM513.927 219.328C518.67 217.036 522.041 214.727 523.927 209.361C525.311 205.353 525.055 200.961 523.214 197.141C521.508 193.578 518.397 190.884 514.626 189.705C512.351 188.976 510.518 188.976 508.193 189.065C490.116 196.597 494.663 220.827 513.927 219.328Z"/><path fill="#FDFDFD" d="M833.936 182.136C834.621 182.03 835.311 181.965 836.004 181.941C853.446 181.232 858.266 192.277 858.74 207.61C854.326 207.606 831.161 206.631 829.003 208.816C829.24 212.117 832.591 215.515 836.041 215.485C839.691 215.454 841.571 213.602 843.976 211.192L857.956 211.212C853.444 225.86 836.852 231.014 824.268 222.727C813.91 215.905 812.329 199.574 819.594 190.007C823.591 184.743 827.554 183.157 833.936 182.136ZM840.125 199.478C842.169 199.498 842.837 199.837 844.421 198.877C845.113 194.244 838.321 192.774 834.652 193.05C832.745 194.245 830.755 195.27 829.512 197.132L829.378 198.26C831.017 200.196 837.548 199.541 840.125 199.478Z"/><path fill="#FDFDFD" d="M690.406 182.365L703.944 182.358L703.926 197.352L704.032 225.959C700.532 226.041 695.23 226.437 691.993 225.58C690.774 224.516 690.884 223.758 690.367 221.971C688 221.984 682.769 226.502 678.392 226.541C656.49 226.736 660.887 197.097 660.921 182.431L674.634 182.359C674.425 190.581 673.964 198.435 674.824 206.85C674.61 212.451 683.504 217.944 687.264 213.226C692.403 206.779 690.658 189.99 690.406 182.365Z"/><defs><linearGradient id="gradient_3" gradientUnits="userSpaceOnUse" x1="142.82191" y1="242.4852" x2="222.7043" y2="145.75258"><stop offset="0" stop-color="#223959"/><stop offset="1" stop-color="#6969A0"/></linearGradient></defs><path fill="url(#gradient_3)" d="M146.684 249.072C211.554 206.08 171.972 152.607 214.359 125.156L214.551 126.071C212.239 128.105 209.163 130.544 207.149 132.715C208.597 134.047 212.794 137.344 213.778 138.542C200.865 151.035 201.377 165.888 198.958 182.984C195.407 208.088 184.377 233.457 163.547 248.983L146.684 249.072Z"/><path fill="#FDFDFD" d="M404.92 170.188C418.765 170.256 424.936 175.364 431.561 187.081L422.51 187.068C416.025 178.276 406.829 174.262 396.545 179.932C391.937 182.416 388.527 186.655 387.088 191.688C385.479 197.27 386.032 203.754 388.86 208.865C391.43 213.549 395.776 217.003 400.919 218.448C414.221 222.229 421.56 214.212 424.677 202.327L408.037 202.526C406.947 202.454 404.644 202.436 403.941 201.652C402.947 200.541 403.339 197.753 404.308 196.697C408.101 195 427.108 195.721 432.505 195.793C432.776 211.047 426.181 224.461 409.516 226.182C371.542 230.104 365.257 173.954 404.92 170.188Z"/><path fill="#6F739E" d="M214.359 125.156C218.214 121.657 226.111 118.835 231.107 117.503C261.577 109.377 293.936 132.83 295.833 164.505C293.437 168.592 290.26 171.752 287.795 175.669C286.584 167.684 286.092 159.249 282.657 151.912C268.948 122.625 237.205 119.375 213.778 138.542C212.794 137.344 208.597 134.047 207.149 132.715C209.163 130.544 212.239 128.105 214.551 126.071L214.359 125.156Z"/><path fill="#88D3A5" d="M321.232 121.49C335.429 117.508 349.847 114.538 364.255 111.421C364.16 113.627 364.041 116.031 363.732 118.217C361.909 131.119 360.704 144.268 358.726 157.134L350.193 148.874C349.988 145.921 350.297 143.54 347.101 142.461C343.884 142.393 341.97 144.412 339.601 146.419L333.039 153.27C332.284 150.883 329.645 148.094 327.959 146.078C325.859 148.651 322.076 153.579 319.491 155.264L318.026 155.401C320.065 152.873 322.884 149.846 325.071 147.354C327.066 144.057 333.116 137.428 335.806 134.371L332.41 130.122L329.419 131.157C327.973 130.424 328.382 130.568 327.544 128.788C325.645 125.855 323.703 123.958 321.232 121.49Z"/><path fill="#326448" d="M327.544 128.788C331.352 129.637 341.472 126.527 345.788 125.416C340.377 131.588 331.208 142.638 325.071 147.354C327.066 144.057 333.116 137.428 335.806 134.371L332.41 130.122L329.419 131.157C327.973 130.424 328.382 130.568 327.544 128.788Z"/><path fill="#326448" d="M339.601 146.419C340.889 142.85 349.866 134.246 352.814 131.234C351.909 136.925 350.784 143.204 350.193 148.874C349.988 145.921 350.297 143.54 347.101 142.461C343.884 142.393 341.97 144.412 339.601 146.419Z"/><path fill="#FDFDFD" d="M867.455 171.872C871.585 171.704 876.316 171.804 880.492 171.794L880.519 182.425L889.835 182.425L889.659 193.812L880.503 193.781C880.586 199.356 878.834 208.613 882.554 212.943C884.147 214.798 887.337 214.402 889.612 214.333L889.757 222.625L889.584 224.788C888.904 225.677 888.966 225.857 887.784 225.935C863.763 227.53 867.922 213.958 867.346 196.517C867.307 195.338 867.011 194.535 866.022 193.824C864.792 194.064 864.506 194.168 863.296 193.736C861.196 191.202 861.86 185.868 861.975 182.506L867.448 182.378L867.455 171.872Z"/><path fill="#FDFDFD" d="M441.564 167.86L449.295 167.893C449.589 174.297 449.471 181.303 449.477 187.76C457.14 181.776 468.083 178.947 475.367 186.602C483.069 194.697 481.017 215.367 480.785 225.955L472.98 225.945L472.841 201.741C471.862 190.41 461.51 184.216 453.645 191.979C447.155 198.386 449.192 217.45 449.558 225.943L441.519 225.952C441.399 206.588 441.414 187.223 441.564 167.86Z"/><path fill="#FDFDFD" d="M553.463 182.198C560.744 182.057 569.643 183.9 572.809 192.494C573.164 193.458 572.285 194.521 571.737 195.307C570.05 196.512 567.768 196.333 565.644 196.408C562.874 191.291 559.689 187.944 553.142 188.807C550.124 189.205 547.778 191.642 548.555 194.811C549.454 198.907 554.457 200.655 558.565 201.367C568.687 203.121 577.718 208.923 571.338 220.323C568.876 224.723 563.161 225.857 558.212 226.637C546.916 226.309 542.106 223.785 538.477 212.715L546.468 212.303C547.547 214.186 548.547 216.034 550.127 217.588C554.087 221.483 566.074 220.45 565.533 213.39C560.947 205.808 541.953 207.837 539.74 196.436C538.289 188.964 546.626 183.347 553.463 182.198Z"/><path fill="#FDFDFD" d="M584.433 171.908L592.092 171.98L592.077 182.927L603.061 182.544L603.027 189.341L592.006 189.382C591.978 197.38 591.799 205.387 592.185 213.377C592.613 222.247 599.585 216.748 603.075 220.592C603.076 222.294 603.099 223.021 602.748 224.683C600.069 227.278 591.067 226.255 588.643 224.051C580.749 216.875 585.491 200.338 583.939 190.231C581.837 188.127 579.612 190.499 577.892 186.819C577.939 185.309 577.892 184.976 578.7 183.674C580.22 182.487 582.48 182.613 584.469 182.496L584.433 171.908Z"/><path fill="#FDFDFD" d="M456.185 251.91C460.994 251.503 460.412 254.139 465.347 252.254L466.109 252.826C471.141 261.879 462.654 285.502 452.039 270.339L452.772 269.486C455.233 269.009 456.384 272.287 460.142 272.288C462.622 271.529 464.179 269.157 463.884 266.601C462.013 265.988 458.163 267.843 456.531 267.35C447.994 264.77 450.633 256.059 456.185 251.91ZM460.774 264.401C462.422 263.772 463.604 262.307 463.871 260.563C464.138 258.82 463.448 257.068 462.064 255.974C460.68 254.881 458.816 254.616 457.182 255.279C454.692 256.29 453.481 259.117 454.465 261.617C455.45 264.117 458.263 265.359 460.774 264.401Z"/><path fill="#FDFDFD" d="M691.767 251.922C693.898 251.812 695.865 252.731 698.195 253.222C699.145 252.542 699.381 252.317 700.507 252.04L701.061 252.739C701.593 255.71 702.653 265.942 699.563 267.352L698.236 266.422C686.65 271.125 680.51 257.936 691.767 251.922ZM695.358 264.955C701.01 259.529 699.156 255.414 691.716 254.551C690.226 256.521 688.927 258.403 689.271 261.042C689.409 262.175 689.999 263.204 690.907 263.896C692.131 264.834 693.867 264.988 695.358 264.955Z"/><path fill="#FDFDFD" d="M564.406 251.995C566.833 251.804 568.706 252.554 571.028 253.264C572.101 252.72 572.387 252.56 573.593 252.278C575.481 254.777 575.165 263.426 573.434 266.142C571.844 267.105 572.445 266.875 570.333 266.56C568.43 267.506 566.704 268.111 564.555 267.569C562.65 267.09 561.021 265.857 560.043 264.153C557.203 259.25 559.8 254.483 564.406 251.995ZM568.642 264.743C573.866 259.224 571.727 254.869 564.319 254.818C560.873 259.838 561.486 266.418 568.642 264.743Z"/><path fill="#FDFDFD" d="M623.671 252.025C624.71 251.902 630.908 252.666 632.515 252.758C633.833 254.538 633.948 265.55 632.455 267.33C630.165 267.812 631.668 266.544 629.316 266.303C622.189 271.121 616.959 263.153 618.669 256.526C619.27 254.197 621.67 253.04 623.671 252.025ZM627.021 265.232C632.45 259.926 631.636 255.878 623.918 254.433C619.694 259.402 619.307 264.326 627.021 265.232Z"/><path fill="#6F739E" d="M236.726 160.294C240.587 160.054 243.952 162.9 244.357 166.747C244.761 170.595 242.061 174.078 238.234 174.646C235.609 175.035 232.983 173.953 231.393 171.829C229.803 169.705 229.506 166.88 230.62 164.471C231.733 162.063 234.077 160.459 236.726 160.294Z"/><path fill="#6F739E" d="M265.2 160.373C269.05 159.987 272.518 162.71 273.055 166.542C273.593 170.374 271.009 173.947 267.201 174.636C264.601 175.107 261.951 174.116 260.297 172.055C258.643 169.994 258.25 167.192 259.272 164.755C260.295 162.318 262.57 160.636 265.2 160.373Z"/><path fill="#FDFDFD" d="M657.498 247.712C662.485 248.733 665.746 262.777 666.274 267.145L665.737 267.534C663.288 266.879 663.665 263.833 660.123 262.954C654.036 262.712 656.103 264.055 650.694 267.516L650.326 267.072C650.696 263.925 655.957 250.722 657.498 247.712ZM659.906 261.374C661.805 259.357 659.95 253.923 658.163 252.717C657.364 254.66 655.88 257.543 656.147 259.489C657.051 260.867 656.836 260.755 658.727 261.158C659.119 261.238 659.512 261.31 659.906 261.374Z"/><path fill="#FDFDFD" d="M418.812 252.51C420.593 252.388 424.018 252.514 425.921 252.528C427.578 254.88 429.853 257.529 428.193 260.251C426.216 261.178 420.705 260.966 417.814 261.238L417.202 262.038C417.861 263.778 417.494 263.199 418.965 264.362C420.856 264.561 421.274 264.617 423.113 264.214C425.315 263.628 425.244 263.268 427.075 263.863L427.076 264.83C419.182 274.638 406.408 258.408 418.812 252.51ZM424.427 258.43L425.432 257.742C425.198 255.215 421.559 254.774 419.509 254.577C418.204 256.075 418.058 255.77 417.837 257.438C419.532 258.859 422.115 258.491 424.427 258.43Z"/><path fill="#FDFDFD" d="M474.56 252.029C479.501 251.69 484.682 253.559 484.381 259.459C481.693 262.834 474.382 258.356 472.667 262.337L473.299 263.525C476.526 265.849 478.297 265.222 481.329 263.18C481.761 262.779 482.356 262.701 482.946 262.545L483.488 263.036C483.278 264.471 481.877 266.308 480.661 266.943C471.133 271.918 464.515 257.821 474.56 252.029ZM479.53 258.559L480.85 257.885C481.398 255.373 477.348 254.607 475.458 254.347C473.916 255.922 473.726 255.615 473.382 257.438C475.098 258.848 477.232 258.575 479.53 258.559Z"/><path fill="#FDFDFD" d="M547.844 252.082C559.437 251.631 557.998 264.965 554.618 267.179L553.781 266.56C551.695 262.423 555.784 259.201 551.142 254.859C541.573 253.111 548.415 265.345 543.696 267.592C541.742 264.197 541.406 257.496 543.281 254.076C544.035 252.701 546.396 252.398 547.844 252.082Z"/><path fill="#FDFDFD" d="M751.503 252.05C752.226 251.978 752.953 251.948 753.68 251.959C755.774 251.998 757.656 252.71 759.119 254.217C759.461 255.683 759.533 255.114 758.93 256.385C756.661 255.911 754.261 255.288 751.96 255.33L751.628 255.842C753.967 259.321 760.14 260.171 759.451 264.789C758.311 266.565 757.29 266.992 755.478 268.013C754.89 268.024 754.301 268.005 753.714 267.957C751.395 267.744 747.245 265.977 747.693 263.073C749.716 262.288 752.185 265.278 755.103 264.941C756.377 264.108 756.106 264.54 756.427 263.362C753.748 260.19 747.718 259.57 748.092 255.173C749.044 253.461 749.82 253.116 751.503 252.05Z"/><path fill="#FDFDFD" d="M387.779 252.144C390.896 252.544 394.232 251.938 397.123 252.401C402.431 253.252 402.728 263.041 399.65 266.098L398.997 265.802C398.24 263.005 398.365 259.657 398.338 256.715C396.699 254.836 394.929 254.159 392.595 255.042C390.2 257.433 390.554 262.927 389.609 266.896L388.996 267.117C386.864 263.702 387.101 255.933 387.779 252.144Z"/><path fill="#FDFDFD" d="M669.697 252.05C673.882 253.156 683.758 250.984 683.752 258.282C683.749 261.865 682.748 265.733 681.648 269.133C680.454 264.519 680.492 261.564 680.262 256.83C678.668 254.794 677.014 254.135 674.657 255.065C672.36 257.334 672.217 263.921 671.526 267.63L670.479 267.603C668.959 264.431 669.543 255.897 669.697 252.05Z"/><path fill="#FDFDFD" d="M730.581 252.031C733.564 251.779 736.366 252.143 738.129 254.784L737.884 255.948C736.001 256.415 733.29 254.656 730.424 255.078L730.075 255.72C731.182 259.808 747.182 261.524 733.95 268.084C731.516 267.759 726.967 266.782 726.995 263.608C729.854 263.005 733.205 265.861 735.002 263.992C734.157 261.07 727.149 259.986 727.264 254.958C728.05 253.292 728.954 252.961 730.581 252.031Z"/><path fill="#FDFDFD" d="M487.351 252.184C490.14 252.528 496.787 251.88 498.754 253.122C502.34 255.388 501.687 262.953 499.583 266.269L498.98 266.292C498.352 263.382 498.418 259.706 498.371 256.668C496.483 254.854 494.925 254.243 492.475 255.049C489.328 257.934 490.668 263.913 488.986 267.778L488.357 267.438C486.715 264.92 487.23 255.642 487.351 252.184Z"/><path fill="#FDFDFD" d="M710.241 251.703C714.881 252.779 716.292 259.082 717.842 263.204C718.25 262.12 718.679 261.044 719.126 259.976C720.025 257.845 721.334 254.521 723.497 253.646C724.545 255.86 722.08 260.71 721.173 262.87C718.934 268.418 718.037 271.115 713.765 275.248C714.427 272.009 715.103 269.784 716.107 266.624C714.427 261.521 711.761 257.091 710.241 251.703Z"/><path fill="#FDFDFD" d="M584.071 252.191C592.336 250.257 593.489 262.269 591.143 267.056L590.302 267.327C587.23 263.869 591.949 258.694 586.406 254.706C585.94 254.638 584.786 254.633 584.257 254.615C579.123 256.827 581.788 264.047 579.649 267.056L579.066 266.722C577.988 263.561 577.773 255.759 578.74 252.591C580.962 252.782 581.891 252.883 584.071 252.191Z"/><path fill="#FDFDFD" d="M600.599 251.938C603.297 251.948 607.901 252.734 608.457 255.95C606.571 256.649 602.188 254.969 598.798 255.512C595.735 258.13 597.054 268.218 605.787 263.534C606.563 262.846 606.632 262.863 607.675 262.639L608.084 263.212C606.857 267.163 603.161 268.656 599.32 267.575C597.807 267.152 596.523 266.147 595.751 264.78C592.818 259.563 595.886 254.579 600.599 251.938Z"/><path fill="#FDFDFD" d="M522.009 247.935C525.242 247.854 528.323 247.408 531.054 249.125L530.861 249.805C529.025 250.567 526.578 250.238 524.535 250.136C524.466 252.078 524.181 254.111 525.084 255.793C526.601 256.732 526.609 256.357 528.801 256.169C530.586 256.996 530.018 256.482 530.956 258.409C529.026 258.878 526.626 258.946 524.613 259.077C524.639 261.061 524.951 266.101 523.714 267.44L522.94 267.006C521.312 263.366 521.941 252.522 522.009 247.935Z"/><path fill="#FDFDFD" d="M506.473 247.802C507.49 248.682 508.311 251.013 508.714 251.647C508.996 252.092 510.848 251.86 511.91 253.482C506.324 257.632 505.007 262.58 512.155 266.163C512.062 266.597 512.04 267.192 511.638 267.292C501.334 269.828 508.159 258.341 504.094 254.25C503.585 253.737 506.075 248.868 506.473 247.802Z"/><path fill="#FDFDFD" d="M406.043 247.766C408.988 249.78 405.774 250.721 411.524 252.796L411.812 253.589C406.028 258.23 404.869 262.275 412.455 266.011L412.033 267.056C409.812 267.819 408.955 268.095 406.899 266.878C404.736 263.98 405.793 259.411 405.377 255.523C402.628 252.958 404.971 251.746 406.043 247.766Z"/><path fill="#FDFDFD" d="M438.579 246.084C439.797 246.4 439.928 246.469 440.809 247.367C442.51 251.201 441.728 263.706 441.396 268.287C441.035 268.15 439.896 267.681 439.708 267.4C437.217 263.689 438.413 250.483 438.579 246.084Z"/><path fill="#FDFDFD" d="M705.341 246.121C706.032 246.346 707.063 246.793 707.378 247.415C709.349 251.31 708.528 264.306 708 268.225C707.385 267.981 706.864 267.503 706.335 267.087C704.448 263.072 705.125 251.024 705.341 246.121Z"/><path fill="#FDFDFD" d="M432.426 246.132C436.015 247.949 435.165 265.415 433.934 268.448C433.497 268.08 433.107 267.661 432.77 267.2C430.735 264.377 431.756 249.889 432.426 246.132Z"/><path fill="#FDFDFD" d="M380.923 247.609C385.919 249.553 383.868 263.519 383.365 268.137C382.805 267.92 382.298 267.361 381.841 266.937C380.173 263.017 380.748 252.39 380.923 247.609Z"/><path fill="#FDFDFD" d="M637.424 246.178L638.439 246.756C640.953 249.92 639.769 263.701 639.564 267.888C638.638 267.569 638.568 267.392 637.885 266.64C636.355 261.741 637.054 251.547 637.424 246.178Z"/><path fill="#FDFDFD" d="M741.958 251.63L743.455 252.548C745.472 255.98 744.963 264.216 744.304 268.082C740.051 267.068 741.644 254.893 741.958 251.63Z"/><path fill="#FDFDFD" d="M445.556 251.599C446.254 251.837 446.749 252.231 447.36 252.645C449.003 255.605 448.137 264.34 447.951 267.968C446.859 267.669 446.749 267.553 445.943 266.748C444.355 263 445.268 255.829 445.556 251.599Z"/><path fill="#FDFDFD" d="M536.119 251.691C536.768 251.891 537.208 252.28 537.761 252.681C539.338 255.648 538.763 264.897 538.133 268.287C537.48 267.969 537.042 267.477 536.511 266.976C534.905 262.917 535.811 256.193 536.119 251.691Z"/><path fill="#FDFDFD" d="M612.394 251.64C616.831 253.475 614.88 264.337 614.545 268.388L613.319 267.498C611.438 263.69 611.916 255.823 612.394 251.64Z"/></svg>